<svg width="212" height="189" viewBox="0 0 212 189" fill="none" xmlns="http://www.w3.org/2000/svg">
<g clip-path="url(#clip0_6_2534)">
<path d="M198.37 102.972L46.6441 167.741C45.6078 168.182 44.4386 168.195 43.3929 167.777C42.3472 167.359 41.5105 166.544 41.0662 165.511L1.04073 72.1586C0.716953 71.4011 0.707521 70.5464 1.01451 69.782C1.32149 69.0176 1.91983 68.4059 2.67824 68.0811L156.444 2.4418C157.217 2.11316 158.088 2.10362 158.867 2.41525C159.647 2.72689 160.27 3.33426 160.601 4.10411L200.606 97.4068C201.048 98.4408 201.06 99.6074 200.641 100.651C200.222 101.694 199.406 102.529 198.37 102.972Z" fill="#F2F2F2"/>
<path d="M191.355 100.145L49.9496 160.508C47.8768 161.393 45.5148 160.537 44.6844 158.6L9.82972 77.3078C9.21386 75.8714 9.96242 74.1693 11.4984 73.5136L154.804 12.3395C156.366 11.673 158.146 12.3186 158.771 13.7786L193.608 95.0279C194.438 96.9647 193.427 99.2603 191.355 100.145Z" fill="white"/>
<path d="M160.734 4.56395L1.19438 72.668L0.343492 70.6834C-0.0995824 69.6459 -0.112108 68.4754 0.308662 67.4286C0.729431 66.3819 1.54914 65.5444 2.58794 65.1L154.286 0.343357C155.326 -0.0993935 156.499 -0.11262 157.548 0.306578C158.597 0.725776 159.437 1.54317 159.883 2.57942L160.734 4.56395Z" fill="#8BC34A"/>
<path d="M7.05851 67.7854C7.66771 67.7854 8.16157 67.2926 8.16157 66.6847C8.16157 66.0769 7.66771 65.5841 7.05851 65.5841C6.4493 65.5841 5.95544 66.0769 5.95544 66.6847C5.95544 67.2926 6.4493 67.7854 7.05851 67.7854Z" fill="white"/>
<path d="M10.908 66.1422C11.5172 66.1422 12.0111 65.6494 12.0111 65.0416C12.0111 64.4337 11.5172 63.9409 10.908 63.9409C10.2988 63.9409 9.80493 64.4337 9.80493 65.0416C9.80493 65.6494 10.2988 66.1422 10.908 66.1422Z" fill="white"/>
<path d="M14.7575 64.4989C15.3667 64.4989 15.8605 64.0061 15.8605 63.3982C15.8605 62.7904 15.3667 62.2976 14.7575 62.2976C14.1483 62.2976 13.6544 62.7904 13.6544 63.3982C13.6544 64.0061 14.1483 64.4989 14.7575 64.4989Z" fill="white"/>
<path d="M78.257 93.474L59.3991 101.524C58.3629 101.965 57.1937 101.978 56.148 101.56C55.1023 101.142 54.2656 100.327 53.8213 99.2936L43.4115 75.0147C42.9696 73.9807 42.9567 72.8141 43.3758 71.7707C43.7948 70.7273 44.6115 69.8924 45.6467 69.449L64.5046 61.3991C65.5408 60.9581 66.71 60.9453 67.7557 61.3634C68.8014 61.7816 69.6381 62.5965 70.0824 63.6294L80.4923 87.9084C80.9342 88.9423 80.947 90.109 80.528 91.1524C80.1089 92.1958 79.2922 93.0307 78.257 93.474Z" fill="#F2F2F2"/>
<path d="M110.166 79.8528L91.308 87.9028C90.2717 88.3437 89.1025 88.3565 88.0568 87.9384C87.0111 87.5203 86.1744 86.7054 85.7301 85.6724L75.3203 61.3935C74.8784 60.3595 74.8655 59.1929 75.2846 58.1495C75.7036 57.1061 76.5203 56.2712 77.5555 55.8278L96.4134 47.7778C97.4496 47.3369 98.6188 47.3241 99.6645 47.7422C100.71 48.1603 101.547 48.9753 101.991 50.0082L112.401 74.2872C112.843 75.3211 112.856 76.4878 112.437 77.5312C112.018 78.5746 111.201 79.4095 110.166 79.8528Z" fill="#F2F2F2"/>
<path d="M142.075 66.2316L123.217 74.2816C122.181 74.7225 121.011 74.7354 119.966 74.3172C118.92 73.8991 118.083 73.0842 117.639 72.0512L107.229 47.7723C106.787 46.7383 106.774 45.5717 107.193 44.5283C107.612 43.4849 108.429 42.65 109.464 42.2066L128.322 34.1566C129.359 33.7157 130.528 33.7029 131.573 34.121C132.619 34.5391 133.456 35.354 133.9 36.387L144.31 60.666C144.752 61.6999 144.765 62.8666 144.346 63.9099C143.927 64.9533 143.11 65.7883 142.075 66.2316Z" fill="#F2F2F2"/>
<path d="M94.3622 131.037L75.5044 139.087C74.4681 139.527 73.2989 139.54 72.2532 139.122C71.2076 138.704 70.3708 137.889 69.9265 136.856L59.5167 112.577C59.0748 111.543 59.0619 110.377 59.481 109.333C59.9 108.29 60.7167 107.455 61.752 107.012L80.6098 98.9616C81.646 98.5206 82.8152 98.5078 83.8609 98.9259C84.9066 99.3441 85.7434 100.159 86.1877 101.192L96.5975 125.471C97.0394 126.505 97.0522 127.671 96.6332 128.715C96.2141 129.758 95.3974 130.593 94.3622 131.037Z" fill="#F2F2F2"/>
<path d="M126.271 117.415L107.413 125.465C106.377 125.906 105.208 125.919 104.162 125.501C103.116 125.083 102.28 124.268 101.835 123.235L91.4256 98.956C90.9836 97.922 90.9708 96.7554 91.3899 95.712C91.8089 94.6686 92.6256 93.8337 93.6608 93.3904L112.519 85.3403C113.555 84.8994 114.724 84.8866 115.77 85.3047C116.815 85.7228 117.652 86.5378 118.097 87.5707L128.506 111.85C128.948 112.884 128.961 114.05 128.542 115.094C128.123 116.137 127.306 116.972 126.271 117.415Z" fill="#F2F2F2"/>
<path d="M158.18 103.794L139.322 111.844C138.286 112.285 137.117 112.298 136.071 111.88C135.025 111.462 134.188 110.647 133.744 109.614L123.334 85.3349C122.892 84.3009 122.88 83.1343 123.299 82.0909C123.718 81.0475 124.534 80.2126 125.57 79.7693L144.427 71.7192C145.464 71.2783 146.633 71.2655 147.679 71.6836C148.724 72.1017 149.561 72.9167 150.005 73.9496L160.415 98.2286C160.857 99.2625 160.87 100.429 160.451 101.473C160.032 102.516 159.215 103.351 158.18 103.794Z" fill="#F2F2F2"/>
<path d="M207.751 189H42.7227C41.5962 188.999 40.5161 188.552 39.7196 187.757C38.923 186.962 38.4749 185.884 38.4736 184.76V83.224C38.4746 82.4005 38.8028 81.6109 39.3864 81.0286C39.97 80.4463 40.7612 80.1187 41.5865 80.1178H208.833C209.673 80.1188 210.478 80.452 211.071 81.0444C211.665 81.6367 211.999 82.4399 212 83.2777V184.76C211.999 185.884 211.551 186.962 210.754 187.757C209.957 188.552 208.877 188.999 207.751 189Z" fill="#E6E6E6"/>
<path d="M202.415 183.647H48.6132C46.3586 183.647 44.5244 181.933 44.5244 179.827V91.4075C44.5244 89.8452 45.8836 88.5741 47.5543 88.5741H203.424C205.122 88.5741 206.504 89.8661 206.504 91.4542V179.827C206.504 181.933 204.67 183.647 202.415 183.647Z" fill="white"/>
<path d="M211.941 83.7522H38.414V81.5937C38.4156 80.4659 38.8655 79.3848 39.665 78.5876C40.4645 77.7904 41.5483 77.3421 42.6785 77.3412H207.676C208.807 77.3421 209.89 77.7904 210.69 78.5876C211.489 79.3848 211.939 80.4659 211.941 81.5937V83.7522Z" fill="#8BC34A"/>
<path d="M46.1642 81.6538C46.7734 81.6538 47.2672 81.161 47.2672 80.5532C47.2672 79.9453 46.7734 79.4525 46.1642 79.4525C45.555 79.4525 45.0611 79.9453 45.0611 80.5532C45.0611 81.161 45.555 81.6538 46.1642 81.6538Z" fill="white"/>
<path d="M50.3511 81.6538C50.9603 81.6538 51.4542 81.161 51.4542 80.5532C51.4542 79.9453 50.9603 79.4525 50.3511 79.4525C49.7419 79.4525 49.248 79.9453 49.248 80.5532C49.248 81.161 49.7419 81.6538 50.3511 81.6538Z" fill="white"/>
<path d="M54.5381 81.6538C55.1473 81.6538 55.6411 81.161 55.6411 80.5532C55.6411 79.9453 55.1473 79.4525 54.5381 79.4525C53.9289 79.4525 53.435 79.9453 53.435 80.5532C53.435 81.161 53.9289 81.6538 54.5381 81.6538Z" fill="white"/>
<path d="M194.089 113.395H121.219C118.301 113.395 115.936 115.755 115.936 118.666V118.666C115.936 121.577 118.301 123.937 121.219 123.937H194.089C197.007 123.937 199.372 121.577 199.372 118.666C199.372 115.755 197.007 113.395 194.089 113.395Z" fill="#E6E6E6"/>
<path d="M194.089 130.839H121.219C118.301 130.839 115.936 133.199 115.936 136.111V136.111C115.936 139.022 118.301 141.382 121.219 141.382H194.089C197.007 141.382 199.372 139.022 199.372 136.111C199.372 133.199 197.007 130.839 194.089 130.839Z" fill="#E6E6E6"/>
<path d="M194.089 148.284H121.219C118.301 148.284 115.936 150.644 115.936 153.555V153.555C115.936 156.466 118.301 158.826 121.219 158.826H194.089C197.007 158.826 199.372 156.466 199.372 153.555C199.372 150.644 197.007 148.284 194.089 148.284Z" fill="#E6E6E6"/>
<path d="M109.083 136.111C109.083 141.701 107.422 147.166 104.309 151.814C101.197 156.462 96.7724 160.085 91.5963 162.224C86.4202 164.363 80.7246 164.923 75.2297 163.832C69.7348 162.742 64.6873 160.05 60.7257 156.097C56.7641 152.144 54.0662 147.108 52.9732 141.625C51.8802 136.142 52.4412 130.459 54.5852 125.294C56.7292 120.129 60.3599 115.715 65.0183 112.609C69.6767 109.503 75.1534 107.846 80.756 107.846C88.2681 107.848 95.4718 110.827 100.784 116.127C106.096 121.427 109.081 128.615 109.083 136.111Z" fill="white"/>
<path d="M93.8483 140.947C93.5389 159.024 66.5907 159.021 66.2839 140.946C66.5933 122.87 93.5416 122.873 93.8483 140.947Z" fill="#8BC34A"/>
<path d="M79.519 146.558L79.5046 146.044C83.0544 146.517 83.8189 142.127 80.239 143.768L81.0562 137.809L81.5664 137.879L80.8713 142.948C84.6407 142.388 83.2464 147.071 79.519 146.558Z" fill="#2F2E41"/>
<path d="M86.8638 138.316H84.09V138.83H86.8638V138.316Z" fill="#2F2E41"/>
<path d="M78.1082 138.316H75.3344V138.83H78.1082V138.316Z" fill="#2F2E41"/>
<path d="M84.5338 160.174C85.0746 156.533 80.8024 157.253 78.5413 157.217C78.1768 157.218 77.8171 157.3 77.4884 157.458C77.1597 157.615 76.8704 157.844 76.6414 158.127C76.4125 158.41 76.2497 158.74 76.165 159.094C76.0803 159.448 76.0757 159.816 76.1516 160.172C74.4016 160.711 72.781 161.604 71.39 162.793C77.2519 164.832 83.6214 164.903 89.5271 162.993C88.0874 161.703 86.3835 160.741 84.5338 160.174Z" fill="#2F2E41"/>
<path d="M73.5865 134.443C76.1407 132.97 79.2381 134.1 81.8765 134.718C86.8822 136.253 93.9018 134.33 94.5105 128.38C95.144 122.847 87.5578 119.763 85.133 125.27L85.839 125.178C77.9752 113.517 64.2964 113.959 64.3863 129.991C64.3571 130.487 65.1298 130.485 65.1587 129.991C64.8692 120.544 71.1354 114.086 79.9931 120.157C82.0202 121.633 83.6605 123.587 85.1719 125.567C86.0944 126.599 86.2949 122.156 90.7101 123.32C95.5692 125.198 93.9837 132.141 89.6405 133.665C84.2742 136.401 78.4623 131.097 73.1965 133.777C73.1118 133.83 73.0511 133.914 73.0273 134.012C73.0035 134.109 73.0185 134.211 73.0691 134.298C73.1197 134.384 73.2019 134.447 73.2984 134.475C73.3949 134.502 73.4982 134.49 73.5865 134.443Z" fill="#2F2E41"/>
<path d="M80.756 165.146C73.4408 165.14 66.3967 162.383 61.0286 157.424C55.6605 152.466 52.3629 145.67 51.7935 138.393C51.2241 131.116 53.4248 123.892 57.9566 118.162C62.4883 112.433 69.0182 108.618 76.2439 107.479C83.4695 106.34 90.8598 107.961 96.941 112.018C103.022 116.075 107.347 122.27 109.054 129.368C110.76 136.466 109.722 143.944 106.147 150.313C102.572 156.681 96.7231 161.47 89.7659 163.726C86.8564 164.67 83.8155 165.15 80.756 165.146ZM80.756 108.616C75.3051 108.616 69.9764 110.228 65.4438 113.249C60.9113 116.27 57.3784 120.565 55.2921 125.59C53.2058 130.614 52.6597 136.144 53.7229 141.478C54.7862 146.813 57.4109 151.713 61.2653 155.558C65.1196 159.404 70.0305 162.023 75.3766 163.084C80.7228 164.145 86.2642 163.6 91.3001 161.518C96.3359 159.437 100.64 155.912 103.668 151.389C106.696 146.866 108.311 141.549 108.311 136.111C108.302 128.821 105.397 121.833 100.231 116.678C95.0652 111.524 88.0614 108.625 80.756 108.616Z" fill="#3F3D56"/>
</g>
<defs>
<clipPath id="clip0_6_2534">
<rect width="212" height="189" fill="white"/>
</clipPath>
</defs>
</svg>
